<?xml version="1.0" standalone="no"?>
<!DOCTYPE svg PUBLIC "-//W3C//DTD SVG 20010904//EN"
 "http://www.w3.org/TR/2001/REC-SVG-20010904/DTD/svg10.dtd">
<svg version="1.0" xmlns="http://www.w3.org/2000/svg"
 width="330.000000pt" height="188.000000pt" viewBox="0 0 330.000000 188.000000"
 preserveAspectRatio="xMidYMid meet">

<g transform="translate(0.000000,188.000000) scale(0.100000,-0.100000)"
fill="#000000" stroke="none">
<path d="M685 1610 c-4 -7 -3 -16 3 -22 14 -14 47 -6 47 12 0 18 -40 26 -50
10z"/>
<path d="M2630 1575 c0 -27 -14 -33 -90 -37 -32 -2 -45 -7 -45 -18 0 -11 13
-16 43 -18 37 -3 42 -6 37 -22 -3 -11 -1 -28 5 -40 10 -18 8 -20 -25 -20 -19
0 -35 -4 -35 -10 0 -6 53 -10 140 -10 87 0 140 4 140 10 0 6 -15 10 -34 10
-32 0 -34 2 -32 33 1 26 -3 33 -22 35 -27 4 -40 -23 -23 -49 10 -17 8 -19 -27
-19 -37 0 -37 0 -37 40 l0 40 40 0 c22 0 64 3 93 6 75 10 68 30 -15 40 -60 8
-68 12 -71 32 -5 32 -42 30 -42 -3z"/>
<path d="M1883 1552 c-9 -22 7 -126 20 -134 20 -13 231 -10 245 4 13 13 16
106 4 125 -11 17 -263 22 -269 5z m68 -34 c-1 -5 -1 -21 -1 -38 0 -20 -5 -30
-15 -30 -11 0 -15 11 -15 41 0 31 4 40 16 37 8 -2 15 -6 15 -10z m69 -28 c0
-29 -4 -40 -15 -40 -10 0 -15 10 -15 33 0 19 3 37 7 40 15 16 23 5 23 -33z
m90 -5 c0 -31 -3 -35 -25 -35 -22 0 -25 4 -25 35 0 31 3 35 25 35 22 0 25 -4
25 -35z"/>
<path d="M631 1511 c-13 -21 -39 -56 -59 -77 -42 -46 -172 -220 -172 -231 0
-5 -9 -19 -20 -33 -25 -32 -25 -47 1 -55 15 -5 25 -1 36 15 8 12 42 55 75 96
l60 74 46 -37 c25 -21 60 -51 76 -66 45 -42 112 -87 129 -87 14 0 44 28 36 33
-2 2 -24 18 -49 38 -25 19 -56 42 -70 50 -14 9 -41 31 -60 49 -19 18 -45 39
-57 47 -24 16 -21 30 14 68 10 11 34 44 52 74 31 52 32 55 15 68 -25 18 -26
17 -53 -26z"/>
<path d="M1078 1533 l-78 -4 0 -209 c0 -203 1 -210 20 -210 18 0 20 7 20 64 0
35 3 84 6 108 l6 46 74 4 c41 3 77 8 81 11 3 4 8 46 11 95 4 87 4 89 -19 95
-13 4 -28 6 -34 5 -5 -1 -45 -4 -87 -5z m102 -40 c0 -5 -3 -18 -6 -30 -6 -21
-12 -23 -70 -23 -61 0 -64 1 -64 24 0 22 5 25 43 28 23 2 54 4 70 6 15 1 27
-1 27 -5z m-10 -103 c0 -18 -7 -20 -60 -20 -33 0 -60 2 -60 4 0 2 -3 11 -6 20
-5 14 4 16 60 16 59 0 66 -2 66 -20z"/>
<path d="M1276 1471 c-4 -32 -4 -77 0 -99 l6 -41 82 -3 81 -3 3 -82 c2 -69 0
-83 -13 -83 -9 0 -15 -9 -15 -21 0 -15 4 -19 16 -15 9 3 24 6 35 6 18 0 19 9
19 163 0 89 -3 179 -6 200 l-7 37 -97 0 -97 0 -7 -59z m164 -6 c0 -24 -3 -25
-60 -25 -57 0 -60 1 -60 25 0 24 3 25 60 25 57 0 60 -1 60 -25z m0 -75 c0 -18
-7 -20 -60 -20 -53 0 -60 2 -60 20 0 18 7 20 60 20 53 0 60 -2 60 -20z"/>
<path d="M2370 1445 c0 -34 -1 -35 -41 -35 -55 0 -47 -24 9 -28 27 -2 42 -8
42 -17 0 -7 3 -20 6 -29 5 -13 -1 -16 -30 -16 -29 0 -36 -4 -36 -20 0 -18 7
-20 68 -20 37 0 73 4 81 9 19 12 4 31 -25 31 -21 0 -24 5 -24 35 0 33 2 35 35
35 50 0 48 28 -2 32 -33 3 -38 7 -41 31 -2 19 -9 27 -23 27 -15 0 -19 -7 -19
-35z"/>
<path d="M1703 1433 c-43 -6 -45 -33 -3 -33 28 0 30 -2 30 -40 0 -36 -2 -40
-25 -40 -37 0 -35 -38 3 -42 21 -2 28 -9 30 -30 3 -25 0 -28 -27 -28 -24 0
-31 -4 -31 -20 0 -22 6 -23 99 -14 50 6 61 10 61 25 0 14 -7 19 -25 19 -21 0
-25 5 -25 30 0 25 4 30 25 30 35 0 32 26 -5 34 -27 5 -30 9 -30 46 0 38 2 40
30 40 20 0 30 5 30 15 0 15 -54 18 -137 8z"/>
<path d="M1895 1380 c-15 -24 12 -30 136 -30 122 0 129 1 129 20 0 19 -7 20
-129 20 -76 0 -132 -4 -136 -10z"/>
<path d="M2547 1363 c-4 -3 -7 -32 -7 -64 0 -56 12 -81 42 -91 8 -3 1 -23 -20
-60 -37 -64 -39 -78 -12 -78 13 0 30 19 55 61 19 33 35 64 35 70 0 5 11 9 24
9 23 0 25 -5 28 -47 l3 -48 71 -3 c71 -3 72 -3 70 23 -1 23 -5 25 -47 25 -42
0 -47 3 -51 25 -6 30 -2 35 34 35 27 0 28 1 28 53 0 100 4 97 -129 97 -65 0
-121 -3 -124 -7z m203 -43 c0 -6 -35 -10 -85 -10 -50 0 -85 4 -85 10 0 6 35
10 85 10 50 0 85 -4 85 -10z m-2 -62 c-3 -9 -31 -14 -81 -16 -64 -2 -77 0 -77
13 0 12 15 15 81 15 60 0 80 -3 77 -12z"/>
<path d="M1933 1323 c-20 -4 -23 -11 -23 -50 0 -37 4 -46 21 -50 20 -6 17 -10
-26 -48 -45 -41 -52 -65 -19 -65 8 0 27 11 42 25 37 34 50 31 54 -12 2 -31 7
-39 27 -41 24 -4 24 -3 18 67 l-6 71 27 0 c69 0 84 20 66 88 -6 21 -11 22 -83
21 -42 -1 -86 -4 -98 -6z m135 -50 c4 -24 3 -25 -73 -27 -34 -1 -40 2 -43 21
-3 19 2 22 35 26 65 7 78 4 81 -20z"/>
<path d="M1179 1283 c-32 -5 -41 -37 -32 -112 l6 -51 99 0 99 0 -3 83 -3 82
-70 1 c-38 1 -82 -1 -96 -3z m124 -65 c8 -55 -6 -69 -66 -66 l-52 3 -3 48 -3
47 59 0 c60 0 60 0 65 -32z"/>
<path d="M1220 1216 c0 -24 26 -38 40 -22 6 9 9 20 5 26 -9 15 -45 12 -45 -4z"/>
<path d="M2056 1174 c-9 -22 -4 -27 54 -54 38 -18 53 -21 62 -12 14 14 -3 37
-41 56 -49 25 -68 28 -75 10z"/>
<path d="M395 1023 c-47 -24 -66 -45 -86 -89 -28 -63 -1 -133 67 -173 35 -21
43 -21 1257 -21 1183 0 1223 1 1253 19 33 20 74 92 74 131 0 12 -10 43 -22 67
-42 85 69 78 -1298 80 -1095 2 -1218 1 -1245 -14z m196 -93 c5 0 27 9 49 20
46 24 50 24 50 7 0 -8 -11 -19 -25 -25 -30 -14 -32 -31 -4 -66 33 -41 11 -53
-23 -12 -34 42 -58 47 -58 12 0 -33 -10 -57 -21 -50 -14 8 -11 132 4 157 12
21 12 21 15 -10 2 -18 8 -33 13 -33z m1278 44 c12 -10 -16 -24 -50 -24 -35 0
-39 -3 -39 -25 0 -19 5 -25 23 -25 35 0 67 -11 61 -21 -3 -5 -23 -9 -45 -9
-35 0 -39 -3 -39 -25 0 -16 -6 -25 -15 -25 -12 0 -15 14 -15 64 0 35 -3 71 -6
79 -4 11 2 17 18 19 22 4 100 -2 107 -8z m-435 -20 c3 -9 6 -23 6 -33 0 -13 8
-16 40 -13 35 4 41 1 49 -21 12 -31 3 -67 -16 -67 -11 0 -13 7 -9 24 7 29 -6
40 -39 32 -16 -4 -25 -14 -27 -33 -2 -14 -9 -28 -15 -31 -10 -3 -13 17 -13 77
0 76 10 102 24 65z m649 1 c8 -18 -11 -31 -25 -17 -11 11 -3 32 12 32 4 0 10
-7 13 -15z m67 -5 c0 -11 -7 -20 -15 -20 -15 0 -21 21 -8 33 12 13 23 7 23
-13z m240 -6 c0 -8 -7 -14 -15 -14 -15 0 -21 21 -9 33 10 9 24 -2 24 -19z
m313 -5 c-17 -17 -37 -1 -22 17 8 10 15 12 23 4 7 -7 7 -13 -1 -21z m-1683 12
c0 -14 -18 -23 -30 -16 -6 4 -8 11 -5 16 8 12 35 12 35 0z m565 -1 c11 -17 -5
-32 -21 -19 -7 6 -11 15 -8 20 7 12 21 11 29 -1z m943 -70 l-3 -63 -35 -3
c-40 -3 -80 18 -80 43 0 26 31 53 60 53 22 0 29 6 34 26 12 47 27 11 24 -56z
m-1418 46 c0 -8 9 -18 20 -21 26 -8 26 -25 1 -25 -29 0 -37 -21 -15 -37 16
-12 17 -15 4 -23 -28 -18 -40 -11 -40 25 0 28 -4 35 -20 35 -11 0 -20 7 -20
15 0 8 9 15 20 15 11 0 23 7 26 15 8 19 24 20 24 1z m-375 -45 c-7 -34 4 -44
40 -35 20 5 25 12 25 36 0 46 24 28 28 -20 l3 -42 -55 0 c-62 0 -82 18 -70 65
9 37 37 33 29 -4z m220 13 c18 -18 19 -38 4 -65 -13 -26 -31 -14 -27 19 3 23
-1 27 -22 27 -20 0 -26 -6 -30 -30 -8 -46 -25 -36 -28 16 l-3 46 45 1 c28 1
51 -4 61 -14z m63 -31 c-2 -27 -7 -48 -13 -48 -5 0 -11 21 -13 48 -3 38 0 47
13 47 13 0 16 -9 13 -47z m258 12 c3 -19 4 -41 1 -48 -6 -17 -81 -14 -102 3
-37 30 -2 80 56 80 36 0 39 -2 45 -35z m108 29 c9 -3 16 -12 16 -19 0 -10 -10
-12 -36 -8 -32 5 -36 4 -32 -13 3 -15 11 -18 36 -16 38 3 42 -14 7 -30 -19 -9
-29 -8 -50 6 -56 37 -6 105 59 80z m204 -41 c-2 -27 -7 -48 -13 -48 -5 0 -11
21 -13 48 -3 38 0 47 13 47 13 0 16 -9 13 -47z m502 -13 l0 -60 -35 0 c-19 0
-35 5 -35 10 0 6 9 10 20 10 17 0 20 7 20 50 0 38 4 50 15 50 12 0 15 -13 15
-60z m60 15 c0 -33 -4 -45 -15 -45 -11 0 -15 11 -15 38 0 21 3 42 7 45 16 16
23 4 23 -38z m117 33 c7 -5 17 -7 22 -3 6 3 20 1 31 -5 16 -9 20 -19 18 -43
-4 -37 -22 -39 -26 -2 -5 37 -32 32 -32 -6 0 -41 -24 -33 -28 10 -3 27 -7 32
-25 29 -15 -2 -23 -12 -27 -33 -3 -16 -10 -29 -15 -28 -10 2 -26 73 -19 84 6
10 88 8 101 -3z m121 -35 c-2 -27 -7 -48 -13 -48 -5 0 -11 21 -13 48 -3 38 0
47 13 47 13 0 16 -9 13 -47z m270 -4 l3 -47 -40 2 c-47 2 -71 20 -71 52 0 29
25 45 70 41 34 -2 35 -3 38 -48z m47 1 c0 -26 -5 -45 -12 -47 -9 -3 -13 10
-13 47 0 37 4 50 13 48 7 -3 12 -22 12 -48z m-795 10 c0 -27 3 -30 30 -30 27
0 30 3 30 30 0 20 5 30 15 30 11 0 15 -12 15 -45 l0 -45 -50 0 c-55 0 -77 21
-66 66 9 34 26 30 26 -6z"/>
<path d="M2444 869 c-10 -17 12 -32 35 -24 29 9 27 35 -3 35 -14 0 -28 -5 -32
-11z"/>
<path d="M1195 870 c-9 -15 3 -30 25 -30 18 0 34 23 23 34 -10 10 -41 7 -48
-4z"/>
<path d="M2582 863 c2 -10 12 -18 23 -18 11 0 21 8 23 18 3 13 -3 17 -23 17
-20 0 -26 -4 -23 -17z"/>
<path d="M466 631 c6 -37 5 -38 -26 -45 -18 -3 -44 -6 -57 -6 -18 0 -24 -5
-21 -17 2 -14 15 -19 58 -21 55 -3 70 -12 70 -44 0 -14 -8 -18 -39 -18 -52 0
-71 -8 -71 -31 0 -18 5 -19 64 -13 l63 6 7 -73 c12 -131 15 -139 45 -139 15 0
30 2 33 5 2 3 -3 49 -12 102 -10 54 -15 101 -13 106 2 4 16 7 31 7 53 0 102
13 102 26 0 21 -16 25 -75 16 -54 -9 -57 -8 -66 15 -14 38 -13 39 53 49 49 7
64 13 66 27 3 17 -3 18 -70 16 l-73 -2 -14 36 c-10 28 -19 37 -37 37 -22 0
-24 -3 -18 -39z"/>
<path d="M970 599 c0 -33 6 -35 128 -44 50 -4 92 -10 92 -14 0 -4 -10 -16 -22
-27 -13 -11 -63 -56 -113 -100 -49 -44 -99 -86 -110 -92 -19 -10 -18 -11 10
-22 17 -6 35 -8 41 -3 6 4 29 20 52 35 22 15 43 32 47 37 6 11 55 -6 55 -20 0
-4 10 -11 22 -15 13 -4 40 -18 61 -32 26 -18 41 -22 48 -15 22 22 2 48 -63 82
-40 21 -68 43 -68 52 0 9 33 48 74 87 41 40 73 72 72 73 0 1 -74 11 -163 23
l-163 22 0 -27z"/>
<path d="M1362 611 c-9 -24 22 -31 146 -31 102 0 122 2 122 15 0 8 -1 16 -2
16 -2 1 -61 4 -132 8 -103 5 -130 3 -134 -8z"/>
<path d="M1982 568 c4 -27 33 -36 42 -13 8 22 -1 35 -25 35 -15 0 -20 -6 -17
-22z"/>
<path d="M2795 529 c-64 -42 -253 -199 -254 -211 -1 -4 12 -16 28 -28 l30 -20
48 46 c26 25 90 77 141 116 87 67 106 88 81 88 -7 0 -9 10 -5 25 4 14 3 25 -1
25 -5 0 -35 -19 -68 -41z"/>
<path d="M2280 525 c0 -11 12 -15 49 -15 65 0 81 -7 81 -36 0 -22 -4 -24 -55
-24 -42 0 -55 -3 -55 -15 0 -12 13 -15 55 -15 l55 0 0 -35 c0 -32 -3 -35 -29
-35 -45 0 -91 -11 -91 -23 0 -9 145 -6 154 4 2 2 7 47 11 100 l7 96 -32 7
c-18 3 -59 6 -91 6 -46 0 -59 -3 -59 -15z"/>
<path d="M1895 510 c-8 -14 3 -30 21 -30 8 0 14 9 14 20 0 21 -24 28 -35 10z"/>
<path d="M1340 495 c0 -12 15 -15 75 -15 41 0 75 -2 75 -4 0 -2 -16 -46 -35
-97 -19 -52 -35 -100 -35 -107 0 -7 10 -16 22 -21 25 -9 30 0 84 153 13 39 30
73 37 78 6 4 31 8 55 8 23 0 42 5 42 10 0 6 -60 10 -160 10 -136 0 -160 -2
-160 -15z"/>
<path d="M2047 436 c-75 -40 -142 -77 -148 -83 -12 -12 8 -53 27 -53 30 0 314
164 291 168 -13 3 -15 7 -7 23 18 33 -16 21 -163 -55z"/>
<path d="M733 433 c-40 -4 -43 -6 -43 -34 l0 -30 93 6 c129 9 137 11 137 40 0
24 -2 25 -72 23 -40 -1 -92 -3 -115 -5z"/>
<path d="M1620 400 l0 -30 115 0 115 0 0 30 0 30 -115 0 -115 0 0 -30z"/>
</g>
</svg>
